<?xml version="1.0" encoding="utf-8"?>
<!-- Uploaded to: SVG Repo, www.svgrepo.com, Generator: SVG Repo Mixer Tools -->
<svg version="1.1" id="Uploaded to svgrepo.com" xmlns="http://www.w3.org/2000/svg" xmlns:xlink="http://www.w3.org/1999/xlink" 
	 width="800px" height="800px" viewBox="0 0 64 64" xml:space="preserve">
<style type="text/css">
	.fandom_drie{fill:#BE9148;}
	.fandom_vier{fill:#FFC865;}
	.fandom_vijf{fill:#018273;}
	.fandom_zes{fill:#00B3AA;}
	.fandom_zeven{fill:#508D9B;}
	.fandom_acht{fill:#6BC4D2;}
	.fandom_negen{fill:#685683;}
	.fandom_tien{fill:#8579A3;}
	.fandom_vijftien{fill:#3A3A3A;}
	.st0{fill:#4B322A;}
	.st1{fill:#EFEAE0;}
	.st2{fill:#BE5652;}
	.st3{fill:#FF786E;}
	.st4{fill:#644638;}
	.st5{fill:#4D4D4D;}
	.st6{fill:#CCCCCC;}
	.st7{fill:#AA9991;}
	.st8{fill:#808080;}
	.st9{fill:#666666;}
	.st10{fill:#FFFAFA;}
</style>
<g>
	<g>
		<path class="fandom_zes" d="M32,7C18.193,7,7,18.193,7,32h50C57,18.193,45.807,7,32,7z"/>
		<path class="fandom_vijf" d="M32,57c13.807,0,25-11.193,25-25H7C7,45.807,18.193,57,32,57z"/>
	</g>
	<g>
		<path class="fandom_acht" d="M26.393,32.158c1.017-1.835,2.31-3.529,4.031-4.711c1.287-0.884,3.324-1.547,5.235-1.548
			C35.276,27.629,32.547,31.547,26.393,32.158z M28.5,5C27.672,5,27,5.672,27,6.5S27.672,8,28.5,8C29.328,8,30,7.328,30,6.5
			S29.328,5,28.5,5z M27.5,3C26.672,3,26,3.672,26,4.5S26.672,6,27.5,6C28.328,6,29,5.328,29,4.5S28.328,3,27.5,3z M28.542,1
			c-0.828,0-1.5,0.672-1.5,1.5s0.672,1.5,1.5,1.5s1.5-0.672,1.5-1.5S29.37,1,28.542,1z"/>
		<path class="fandom_vijftien" d="M29.776,62l-2.437,0c-1.214,0-1.738-1.173-1.145-2.073l0.871-1.293l-1.206-10.008
			c0.975-0.553,1.951-1.126,2.917-1.723c-0.074,0.087-0.993,0.877-0.931,1.385l1.256,10.327l1.363,0.868
			C31.582,60.194,30.953,62,29.776,62z M35.779,59.483l-1.693-1.077l-1.158-9.741c2.088-2.191,4.602-7.198,5.891-9.922
			c-0.19,0.253-0.389,0.492-0.597,0.715c-1.372,1.473-2.899,2.817-4.517,4.061c-0.487,0.997-1.008,1.982-1.617,2.908
			c-0.348,0.576-1.288,1.244-1.202,1.994l1.213,10.606l-0.593,0.899C30.915,60.827,31.923,62.023,33,62h2.09
			C36.412,61.972,36.896,60.194,35.779,59.483z"/>
		<path class="fandom_vier" d="M38.223,39.458c-2.007,2.155-4.347,4.034-6.817,5.728c6.386-10.062,6.561-18.884,6.561-18.884
			c0.679,0.27,1.277,0.677,1.724,1.272C42.215,30.933,40.919,36.564,38.223,39.458z M43.971,5.889
			c-1.296-1.24-3.159-0.716-4.802-0.736c-0.859-0.011-1.718-0.026-2.577-0.046c0.031,0.055,0.061,0.112,0.088,0.17
			C36.883,5.639,37,6.056,37,6.5c0,0.212-0.027,0.418-0.077,0.614c0.494-0.15,1.147-0.322,2.003-0.503
			c2.01-0.423,5.194,0.579,6.547,0.776L43.971,5.889z"/>
		<path class="fandom_drie" d="M31.442,45.171c-2.154,1.479-4.41,2.812-6.641,4.049c-1.051,0.583-2.524-0.139-2.474-1.42
			c0.013-0.335,0.041-0.671,0.066-1.007c7.559-2.61,12.628-9.351,10.646-17.24c0.972-0.813,2.376-2.421,2.618-3.646
			c0.82,0,1.62,0.109,2.325,0.391C37.981,26.299,37.896,34.812,31.442,45.171z M45.473,7.388c-1.353-0.197-4.537-1.199-6.547-0.776
			c-0.855,0.18-1.509,0.352-2.003,0.503c-0.047,0.184-0.113,0.359-0.198,0.524c0,0-0.236,0.447-0.638,0.784
			c0.567-0.042,1.483-0.155,2.839-0.44c2.604-0.548,7.194,1.302,7.194,0.685C46.12,8.279,45.838,7.826,45.473,7.388z"/>
		<path class="fandom_tien" d="M22.392,46.794c0.246-3.81,2.431-11.164,2.431-11.164c3.292-0.428,6.466-1.691,8.513-4.63
			C34.427,38.463,29.273,44.418,22.392,46.794z M34.5,4C33.119,4,32,5.119,32,6.5S33.119,9,34.5,9C35.881,9,37,7.881,37,6.5
			S35.881,4,34.5,4z"/>
		<path class="fandom_negen" d="M24.824,35.63c0.073-0.198,1.063-2.878,1.568-3.472c2.465-0.302,4.778-1.043,6.646-2.604
			c0.123,0.491,0.219,0.976,0.29,1.455C31.281,33.941,28.112,35.202,24.824,35.63z M36.153,8.366
			c-0.108,0.021,0.03-0.027,0.12-0.118c-2.374,0.362-3.832-2.503-2.145-4.21c-0.165,0.025-0.574,0.148-0.574,0.148
			c-0.902-0.836-2.524-1.585-3.542-1.984c0.068,0.337,0.019,0.662-0.134,0.967c-0.195,0.389-0.549,0.682-0.984,0.785
			C28.96,4.124,29,4.307,29,4.5c0,0.198-0.04,0.385-0.11,0.558c0.411,0.111,0.749,0.391,0.94,0.762
			c0.799-0.467,2.336-0.388,2.387-0.283c-0.028,0.066-0.071,0.121-0.094,0.19c-0.427,1.313,0.292,2.723,1.604,3.149
			c0.271,0.088,0.543,0.114,0.811,0.108c0.009,0.005,0.014,0.009,0.024,0.014c4.004,7.936,0.704,16.917,0.704,16.917
			c1.642-0.076,3.32,0.302,4.342,1.565C40.344,21.625,36.635,9.956,36.153,8.366z"/>
		<path class="fandom_zeven" d="M29.878,3.169C29.631,3.66,29.128,4,28.542,4c-0.828,0-1.5-0.672-1.5-1.5
			c0-0.587,0.34-1.089,0.831-1.336C27.226,2.451,28.59,3.816,29.878,3.169z M27.687,5.973c0.503-0.065,0.93-0.367,1.149-0.804
			c-0.357,0.18-0.695,0.188-1.125,0.077c-0.797-0.264-1.331-1.184-0.88-2.082C26.34,3.411,26,3.913,26,4.5
			c0,0.697,0.463,1.273,1.107,1.442C27.037,6.115,27,6.301,27,6.5C27,7.328,27.672,8,28.5,8c0.587,0,1.089-0.34,1.336-0.831
			C28.822,7.678,27.777,6.938,27.687,5.973z"/>
	</g>
</g>
</svg>