<?xml version="1.0" encoding="utf-8"?>
<!-- Uploaded to: SVG Repo, www.svgrepo.com, Generator: SVG Repo Mixer Tools -->
<svg width="800px" height="800px" viewBox="0 0 1024 1024" class="icon"  version="1.1" xmlns="http://www.w3.org/2000/svg"><path d="M304.08 622.72s11.19 33.58 10 46-8.71 28.61-10 42.29-6.22 179.11-3.73 192.79 8.71 58.46 26.12 54.73 8.71-187.82 17.41-230.11 62.19-78.36 62.19-78.36l287.32 1.24s51 73.39 59.7 135.58 7.46 164.18 18.66 169.16 21.15-58.44 21.15-98.24 8.71-228.86-10-257.47-478.82 22.39-478.82 22.39z" fill="#FCB199" /><path d="M215.1 421.51c18.36 97.91-46.91 281.48-51 338.59s25.55 158.45 63.23 183.57c30.6 20.4 28.56-7.14 11.22-37.73s-36.71-70.37-33.65-109.12 77.51-145.84 101-147.88 29.58 18.36 93.83 20.4 206.56-15.72 207-1c3.06 96.89 54.05 123.4 60.17 177.45s0 111.16 20.4 114.22 23.46-96.89 22.44-135.64-14.29-105.97-14.29-144.84c0 0 139.72 15.3 105-214.17 0 0 309.35-193.05 11.22-379.38-49-30.6-106.06-20.4-106.06-20.4s28.6 7.14 33.7 23.42c0 0-65.27-25.5-95.87-4.08 0 0 30.6-1 39.77 11.22 0 0-72.41-11.22-86.69 38.75 0 0 30.6-19.38 42.83-10.2 0 0-59.15 45.89-60.17 101C610.8 178.78 698.5 164.5 698.5 164.5s-13.26 5.1-32.64 21.42c0 0 376.32-21.42 123.4 261.08 0 0-185.61-20.4-293.72-17.34s-205 12.24-258-5.1-22.44-3.05-22.44-3.05z" fill="#FB9D7F" /><path d="M97.6 120.21S161 170 168.5 203.55c0 0 77.12-31.1 115.68-31.1 0 0 13.68-110.7 34.83-108.21 0 0 38.56 28.61 47.27 85.82s16.16 233.84-111.96 333.35C103.82 431.17 81.43 272 82.68 233.4S97.6 120.21 97.6 120.21z" fill="#F4CDAC" /><path d="M97.6 120.21S161 170 168.5 203.55c0 0 77.12-31.1 115.68-31.1 0 0 13.68-110.7 34.83-108.21 0 0 38.56 28.61 47.27 85.82 1.14 7.49 2.26 17 3.05 28.15-34.11 11.52-117.59 62.79-105.27 297.35 0.17 3.29-18.36-0.74-18.36 2.55-33.61-247.52-138.19-227.94-163-244.7 1.22-38.57 14.9-113.2 14.9-113.2z" fill="#FB9D7F" /><path d="M106.24 312.13c11.56-18.15 67.56-12 54.05 15-14.29 19.67-22.1-11.22-54.05-15zM362.33 271.66c-18.18-11.51-66.25 17.87-42.53 36.59 21.27 11.75 15.2-19.59 42.53-36.59z" fill="#0C0023" /><path d="M323.72 111.47s-19.89 31.36-17.59 48.19c0 0 29.07-9.18 37.48-8.41 0 0-6.12-26.01-19.89-39.78zM113.37 166.54s24.48 11.28 35.18 34.42c0 0-39.77 12.24-48.19 13 0.01 0.04-0.75-33.65 13.01-47.42z" fill="#F4CDAC" /><path d="M255.42 491.24c12.12-1.77 21.86-16.62 19.34-26.1s-45.37-2.47-44.63 4.63c1.15 11.16 13.17 23.23 25.29 21.47z" fill="#0C0023" /></svg>