<?xml version="1.0" ?><!-- Uploaded to: SVG Repo, www.svgrepo.com, Generator: SVG Repo Mixer Tools -->
<svg width="800px" height="800px" viewBox="0 0 24 24" fill="none" xmlns="http://www.w3.org/2000/svg"><path clip-rule="evenodd" d="M15.5162 16.236C15.8424 15.9807 16.3137 16.0382 16.569 16.3644L20.6177 21.5377C20.873 21.8639 20.8155 22.3353 20.4893 22.5906C20.1631 22.8459 19.6918 22.7884 19.4365 22.4622L15.3878 17.2888C15.1325 16.9626 15.19 16.4913 15.5162 16.236Z" fill="#000000" fill-rule="evenodd"/><path clip-rule="evenodd" d="M11.7236 19.4472C16.5415 19.4472 20.4472 15.5415 20.4472 10.7236C20.4472 5.90568 16.5415 2 11.7236 2C6.90568 2 3 5.90568 3 10.7236C3 15.5415 6.90568 19.4472 11.7236 19.4472ZM15.254 9.25396C15.5469 8.96107 15.5469 8.4862 15.254 8.1933C14.9611 7.90041 14.4862 7.90041 14.1933 8.1933L10.7236 11.663L9.25396 10.1933C8.96107 9.90041 8.4862 9.90041 8.1933 10.1933C7.90041 10.4862 7.90041 10.9611 8.1933 11.254L10.1933 13.254C10.4862 13.5469 10.9611 13.5469 11.254 13.254L15.254 9.25396Z" fill="#000000" fill-rule="evenodd"/></svg>